<svg id="eN8ZE09KhGO1" xmlns="http://www.w3.org/2000/svg" xmlns:xlink="http://www.w3.org/1999/xlink" viewBox="0 0 1920 1080" shape-rendering="geometricPrecision" text-rendering="geometricPrecision"><ellipse rx="352.115826" ry="60.255114" transform="matrix(2.726376-.023171-.044793-5.270594 947.690115 1056.084941)" fill="#979ba5" stroke-width="0"/><ellipse rx="352.115826" ry="60.255114" transform="matrix(2.726376-.023171-.044793-5.270594 947.690115 1056.084941)" fill="#979ba5" stroke-width="0"/><ellipse rx="107.177034" ry="41.148326" transform="matrix(.613531 0.061598-.054112 0.538969 1541.58738 1001.98607)" fill="#3a3d43" stroke-width="0"/><ellipse rx="87.081339" ry="28.708134" transform="matrix(.708951 0.071178-.065807 0.655451 1540.369766 1008.234694)" fill="#c1c3c6" stroke-width="0"/><ellipse rx="107.177034" ry="41.148326" transform="matrix(.919493 0.127592-.137644 0.991929 1192.262708 832.978928)" fill="#3a3d43" stroke-width="0"/><ellipse rx="87.081339" ry="28.708134" transform="matrix(1.062517 0.147439-.16739 1.206297 1192.262704 837.763638)" fill="#c1c3c6" stroke-width="0"/><ellipse rx="87.081339" ry="28.708134" transform="matrix(.593973 0.022136-.02897 0.777372 898.404951 945.56734)" fill="#c1c3c6" stroke-width="0"/><ellipse rx="107.177034" ry="41.148326" transform="matrix(.976975-.213352 0.163735 0.749772 326.652755 870.119248)" fill="#3a3d43" stroke-width="0"/><ellipse rx="87.081339" ry="28.708134" transform="matrix(1.128937-.246538 0.199128 0.911842 326.652759 874.903953)" fill="#c1c3c6" stroke-width="0"/><ellipse rx="107.177034" ry="41.148326" transform="matrix(.514017 0.019156-.023822 0.639227 899.236632 939.528055)" fill="#3a3d43" stroke-width="0"/><ellipse rx="87.081339" ry="28.708134" transform="matrix(.593973 0.022136-.02897 0.777372 898.404951 945.56734)" fill="#c1c3c6" stroke-width="0"/></svg>
