<svg xlink="http://www.w3.org/1999/xlink" viewBox="0 0 5000 5000" xmlns="http://www.w3.org/2000/svg" style="transform: scale(1);"><defs><filter id="goo"><feGaussianBlur in="SourceGraphic" stdDeviation="0" result="blur"></feGaussianBlur><feColorMatrix in="blur" type="matrix" values="1 0 0 0 0 0 1 0 0 0 0 0 1 0 0 0 0 0 19 -9" result="good"></feColorMatrix><feComposite in="SourceGraphic" in2="goo" operator="atop"></feComposite></filter><path d="M231,244C246,239 257,241 270,249C270,254 269,259 265,264C255,260 251,261 243,269C233,264 229,254 231,244z" id="P0"></path><path d="M259,256L251,261L242,243L251,239L259,256z" id="P1"></path><path d="M269,259C260,271 244,273 232,261Q223,233 251,229C252,239 253,240 260,232C260,244 261,249 269,259z" id="P2"></path><path d="M240,249L254,241L260,251L243,257L240,249z" id="P3"></path><path d="M230,246C234,235 245,229 255,231C270,239 271,257 259,268L230,251Q220,250 230,246z" id="P4"></path><path d="M253,266L250,266L246,235L262,240L253,266z" id="P5"></path><path d="M277,255L233,271C235,253 237,243 242,224C249,236 253,236 261,226L277,255z" id="P6"></path><path d="M243,263L238,240L264,244L257,263L243,263z" id="P7"></path></defs><rect id="RECT" width="5000" height="5000" fill="#0E1135"></rect><g id="group" fill="#FFF" filter=""><use x="-73" y="180" href="#P3"></use><use x="-17" y="587" href="#P5"></use><use x="-113" y="1073" href="#P3"></use><use x="57" y="1685" href="#P7"></use><use x="-84" y="2093" href="#P5"></use><use x="42" y="2630" href="#P2"></use><use x="121" y="3090" href="#P5"></use><use x="-222" y="3565" href="#P6"></use><use x="152" y="3665" href="#P6"></use><use x="-2" y="4604" href="#P3"></use><use x="134" y="4784" href="#P4"></use><use x="130" y="5356" href="#P4"></use><use x="701" y="-147" href="#P1"></use><use x="406" y="685" href="#P6"></use><use x="619" y="1208" href="#P5"></use><use x="280" y="1423" href="#P3"></use><use x="426" y="1804" href="#P7"></use><use x="631" y="2469" href="#P6"></use><use x="576" y="2984" href="#P5"></use><use x="613" y="3545" href="#P1"></use><use x="598" y="3880" href="#P3"></use><use x="351" y="4513" href="#P4"></use><use x="747" y="4769" href="#P4"></use><use x="718" y="5345" href="#P7"></use><use x="938" y="-245" href="#P5"></use><use x="948" y="356" href="#P6"></use><use x="836" y="1075" href="#P4"></use><use x="1019" y="1316" href="#P2"></use><use x="1142" y="1820" href="#P7"></use><use x="1070" y="2326" href="#P7"></use><use x="767" y="2966" href="#P1"></use><use x="882" y="3639" href="#P3"></use><use x="1084" y="3707" href="#P2"></use><use x="937" y="4391" href="#P1"></use><use x="1173" y="4899" href="#P7"></use><use x="947" y="5207" href="#P2"></use><use x="1315" y="148" href="#P4"></use><use x="1713" y="240" href="#P3"></use><use x="1616" y="872" href="#P7"></use><use x="1313" y="1632" href="#P6"></use><use x="1701" y="2129" href="#P5"></use><use x="1398" y="2470" href="#P7"></use><use x="1509" y="3008" href="#P0"></use><use x="1596" y="3317" href="#P4"></use><use x="1722" y="3879" href="#P4"></use><use x="1651" y="4571" href="#P1"></use><use x="1311" y="5025" href="#P0"></use><use x="1371" y="5321" href="#P6"></use><use x="2138" y="-2" href="#P5"></use><use x="2186" y="318" href="#P7"></use><use x="1829" y="952" href="#P2"></use><use x="1813" y="1487" href="#P2"></use><use x="2015" y="1946" href="#P4"></use><use x="2199" y="2249" href="#P6"></use><use x="2179" y="2821" href="#P5"></use><use x="2196" y="3224" href="#P6"></use><use x="2206" y="3859" href="#P3"></use><use x="1776" y="4296" href="#P4"></use><use x="1999" y="4922" href="#P4"></use><use x="2042" y="5190" href="#P3"></use><use x="2342" y="24" href="#P0"></use><use x="2603" y="672" href="#P3"></use><use x="2508" y="1146" href="#P1"></use><use x="2725" y="1428" href="#P4"></use><use x="2338" y="1772" href="#P7"></use><use x="2444" y="2228" href="#P6"></use><use x="2326" y="3012" href="#P3"></use><use x="2597" y="3412" href="#P6"></use><use x="2568" y="3922" href="#P1"></use><use x="2474" y="4238" href="#P7"></use><use x="2299" y="4885" href="#P6"></use><use x="2263" y="5368" href="#P3"></use><use x="2893" y="236" href="#P2"></use><use x="3132" y="607" href="#P5"></use><use x="3123" y="852" href="#P1"></use><use x="2762" y="1391" href="#P3"></use><use x="3122" y="1929" href="#P5"></use><use x="3117" y="2352" href="#P0"></use><use x="2913" y="2851" href="#P4"></use><use x="3025" y="3409" href="#P3"></use><use x="3158" y="3839" href="#P2"></use><use x="3041" y="4391" href="#P4"></use><use x="3028" y="4943" href="#P4"></use><use x="3027" y="5245" href="#P2"></use><use x="3720" y="70" href="#P0"></use><use x="3740" y="285" href="#P5"></use><use x="3427" y="1043" href="#P5"></use><use x="3635" y="1432" href="#P0"></use><use x="3589" y="1987" href="#P1"></use><use x="3284" y="2382" href="#P5"></use><use x="3308" y="2954" href="#P4"></use><use x="3453" y="3295" href="#P5"></use><use x="3636" y="4088" href="#P4"></use><use x="3469" y="4539" href="#P4"></use><use x="3518" y="4854" href="#P0"></use><use x="3681" y="5435" href="#P4"></use><use x="3882" y="-241" href="#P5"></use><use x="3761" y="342" href="#P5"></use><use x="4243" y="1165" href="#P2"></use><use x="3800" y="1553" href="#P6"></use><use x="4132" y="2171" href="#P7"></use><use x="4050" y="2550" href="#P1"></use><use x="4150" y="2853" href="#P1"></use><use x="3990" y="3554" href="#P1"></use><use x="3759" y="4034" href="#P2"></use><use x="4139" y="4309" href="#P5"></use><use x="4154" y="4642" href="#P5"></use><use x="3962" y="5330" href="#P0"></use><use x="4595" y="107" href="#P0"></use><use x="4681" y="312" href="#P6"></use><use x="4373" y="1166" href="#P4"></use><use x="4368" y="1690" href="#P2"></use><use x="4690" y="2077" href="#P3"></use><use x="4365" y="2567" href="#P1"></use><use x="4366" y="2956" href="#P7"></use><use x="4630" y="3458" href="#P6"></use><use x="4251" y="4126" href="#P6"></use><use x="4475" y="4404" href="#P4"></use><use x="4520" y="4720" href="#P5"></use><use x="4631" y="5307" href="#P4"></use><use x="4754" y="49" href="#P6"></use><use x="5144" y="570" href="#P4"></use><use x="5241" y="1199" href="#P6"></use><use x="4814" y="1595" href="#P1"></use><use x="4820" y="1861" href="#P3"></use><use x="4752" y="2374" href="#P4"></use><use x="5199" y="2803" href="#P7"></use><use x="5215" y="3278" href="#P1"></use><use x="5220" y="4105" href="#P5"></use><use x="5074" y="4568" href="#P1"></use><use x="5168" y="4631" href="#P3"></use><use x="5141" y="5222" href="#P4"></use></g></svg>