<svg id="emKsE8AX6Iy1" xmlns="http://www.w3.org/2000/svg" xmlns:xlink="http://www.w3.org/1999/xlink" viewBox="0 0 300 300" shape-rendering="geometricPrecision" text-rendering="geometricPrecision"><polygon points="-25.637625,-30 -25.148949,-28.10999 -23.441254,-28.157379 -24.846931,-27.036677 -24.280193,-25.175954 -25.637625,-26.373333 -26.995057,-25.175954 -26.428319,-27.036677 -27.833996,-28.157379 -26.126301,-28.10999 -25.637625,-30" transform="matrix(.5 0 0 0.5 199.00208 134.24779)" fill="#c0c1c3" stroke-width="0"/><polygon points="-25.637625,-30 -25.148949,-28.10999 -23.441254,-28.157379 -24.846931,-27.036677 -24.280193,-25.175954 -25.637625,-26.373333 -26.995057,-25.175954 -26.428319,-27.036677 -27.833996,-28.157379 -26.126301,-28.10999 -25.637625,-30" transform="matrix(.5 0 0 0.5 136.962383 124.24779)" fill="#c0c1c3" stroke-width="0"/><polygon points="-25.637625,-30 -25.148949,-28.10999 -23.441254,-28.157379 -24.846931,-27.036677 -24.280193,-25.175954 -25.637625,-26.373333 -26.995057,-25.175954 -26.428319,-27.036677 -27.833996,-28.157379 -26.126301,-28.10999 -25.637625,-30" transform="matrix(.5 0 0 0.5 92.545632 33.363509)" fill="#c0c1c3" stroke-width="0"/><polygon points="-25.637625,-30 -25.148949,-28.10999 -23.441254,-28.157379 -24.846931,-27.036677 -24.280193,-25.175954 -25.637625,-26.373333 -26.995057,-25.175954 -26.428319,-27.036677 -27.833996,-28.157379 -26.126301,-28.10999 -25.637625,-30" transform="matrix(.5 0 0 0.5 35.505936 74.333887)" fill="#c0c1c3" stroke-width="0"/><polygon points="-25.637625,-30 -25.148949,-28.10999 -23.441254,-28.157379 -24.846931,-27.036677 -24.280193,-25.175954 -25.637625,-26.373333 -26.995057,-25.175954 -26.428319,-27.036677 -27.833996,-28.157379 -26.126301,-28.10999 -25.637625,-30" transform="matrix(.5 0 0 0.5 97.545632 114.24779)" fill="#c0c1c3" stroke-width="0"/><polygon points="-25.637625,-30 -25.148949,-28.10999 -23.441254,-28.157379 -24.846931,-27.036677 -24.280193,-25.175954 -25.637625,-26.373333 -26.995057,-25.175954 -26.428319,-27.036677 -27.833996,-28.157379 -26.126301,-28.10999 -25.637625,-30" transform="matrix(.5 0 0 0.5 141.962383 150)" fill="#c0c1c3" stroke-width="0"/><polygon points="-25.637625,-30 -25.148949,-28.10999 -23.441254,-28.157379 -24.846931,-27.036677 -24.280193,-25.175954 -25.637625,-26.373333 -26.995057,-25.175954 -26.428319,-27.036677 -27.833996,-28.157379 -26.126301,-28.10999 -25.637625,-30" transform="matrix(.5 0 0 0.5 187.226653 84.333887)" fill="#c0c1c3" stroke-width="0"/><polygon points="-25.637625,-30 -25.148949,-28.10999 -23.441254,-28.157379 -24.846931,-27.036677 -24.280193,-25.175954 -25.637625,-26.373333 -26.995057,-25.175954 -26.428319,-27.036677 -27.833996,-28.157379 -26.126301,-28.10999 -25.637625,-30" transform="matrix(.5 0 0 0.5 40.505936 124.24779)" fill="#c0c1c3" stroke-width="0"/><polygon points="-25.637625,-30 -25.148949,-28.10999 -23.441254,-28.157379 -24.846931,-27.036677 -24.280193,-25.175954 -25.637625,-26.373333 -26.995057,-25.175954 -26.428319,-27.036677 -27.833996,-28.157379 -26.126301,-28.10999 -25.637625,-30" transform="matrix(.5 0 0 0.5 79.856458 150)" fill="#c0c1c3" stroke-width="0"/><polygon points="-25.637625,-30 -25.148949,-28.10999 -23.441254,-28.157379 -24.846931,-27.036677 -24.280193,-25.175954 -25.637625,-26.373333 -26.995057,-25.175954 -26.428319,-27.036677 -27.833996,-28.157379 -26.126301,-28.10999 -25.637625,-30" transform="matrix(.5 0 0 0.5 97.545632 74.333887)" fill="#c0c1c3" stroke-width="0"/><polygon points="-8.764075,-12.258099 -8.085359,-10.670122 -6.567704,-10.415477 -7.665889,-9.179409 -7.406643,-7.434053 -8.764075,-8.258098 -10.121507,-7.434053 -9.862261,-9.179409 -10.960446,-10.415477 -9.442791,-10.670122 -8.764075,-12.258099" transform="matrix(.5 0 0 0.5 66.419684 90.335344)" fill="#c0c1c3" stroke-width="0"/><polygon points="-25.637625,-30 -24.958909,-28.412023 -23.441254,-28.157378 -24.539439,-26.92131 -24.280193,-25.175954 -25.637625,-25.999999 -26.995057,-25.175954 -26.735811,-26.92131 -27.833996,-28.157378 -26.316341,-28.412023 -25.637625,-30" transform="matrix(.5 0 0 0.5 253.712564 94.206295)" fill="#c0c1c3" stroke-width="0"/><polygon points="-25.637625,-30 -24.958909,-28.412023 -23.441254,-28.157378 -24.539439,-26.92131 -24.280193,-25.175954 -25.637625,-25.999999 -26.995057,-25.175954 -26.735811,-26.92131 -27.833996,-28.157378 -26.316341,-28.412023 -25.637625,-30" transform="matrix(.5 0 0 0.5 197.226653 182.454368)" fill="#c0c1c3" stroke-width="0"/><polygon points="-25.637625,-30 -24.958909,-28.412023 -23.441254,-28.157378 -24.539439,-26.92131 -24.280193,-25.175954 -25.637625,-25.999999 -26.995057,-25.175954 -26.735811,-26.92131 -27.833996,-28.157378 -26.316341,-28.412023 -25.637625,-30" transform="matrix(.5 0 0 0.5 69.856459 210.127592)" fill="#c0c1c3" stroke-width="0"/><polygon points="-8.764075,-12.258099 -8.085359,-10.670122 -6.567704,-10.415477 -7.665889,-9.179409 -7.406643,-7.434053 -8.764075,-8.258098 -10.121507,-7.434053 -9.862261,-9.179409 -10.960446,-10.415477 -9.442791,-10.670122 -8.764075,-12.258099" transform="matrix(.5 0 0 0.5 153.382037 100.285874)" fill="#c0c1c3" stroke-width="0"/><polygon points="-25.637625,-30 -24.958909,-28.412023 -23.441254,-28.157378 -24.539439,-26.92131 -24.280193,-25.175954 -25.637625,-25.999999 -26.995057,-25.175954 -26.735811,-26.92131 -27.833996,-28.157378 -26.316341,-28.412023 -25.637625,-30" transform="matrix(.5 0 0 0.5 253.712564 94.206295)" fill="#c0c1c3" stroke-width="0"/><polygon points="-25.637625,-30 -24.958909,-28.412023 -23.441254,-28.157378 -24.539439,-26.92131 -24.280193,-25.175954 -25.637625,-25.999999 -26.995057,-25.175954 -26.735811,-26.92131 -27.833996,-28.157378 -26.316341,-28.412023 -25.637625,-30" transform="matrix(.5 0 0 0.5 238.776361 155)" fill="#c0c1c3" stroke-width="0"/><polygon points="-25.637625,-30 -24.958909,-28.412023 -23.441254,-28.157378 -24.539439,-26.92131 -24.280193,-25.175954 -25.637625,-25.999999 -26.995057,-25.175954 -26.735811,-26.92131 -27.833996,-28.157378 -26.316341,-28.412023 -25.637625,-30" transform="matrix(.5 0 0 0.5 97.545632 234.728867)" fill="#c0c1c3" stroke-width="0"/><polygon points="-25.637625,-30 -25.148949,-28.10999 -23.441254,-28.157379 -24.846931,-27.036677 -24.280193,-25.175954 -25.637625,-26.373333 -26.995057,-25.175954 -26.428319,-27.036677 -27.833996,-28.157379 -26.126301,-28.10999 -25.637625,-30" transform="matrix(.5 0 0 0.5 59.302676 54.333887)" fill="#c0c1c3" stroke-width="0"/><polygon points="-8.764075,-12.258099 -8.085359,-10.670122 -6.567704,-10.415477 -7.665889,-9.179409 -7.406643,-7.434053 -8.764075,-8.258098 -10.121507,-7.434053 -9.862261,-9.179409 -10.960446,-10.415477 -9.442791,-10.670122 -8.764075,-12.258099" transform="matrix(.5 0 0 0.5 133.525607 40.462936)" fill="#c0c1c3" stroke-width="0"/><polygon points="-25.637625,-30 -24.958909,-28.412023 -23.441254,-28.157378 -24.539439,-26.92131 -24.280193,-25.175954 -25.637625,-25.999999 -26.995057,-25.175954 -26.735811,-26.92131 -27.833996,-28.157378 -26.316341,-28.412023 -25.637625,-30" transform="matrix(.5 0 0 0.5 275.310118 64.333887)" fill="#c0c1c3" stroke-width="0"/><polygon points="-25.637625,-30 -24.958909,-28.412023 -23.441254,-28.157378 -24.539439,-26.92131 -24.280193,-25.175954 -25.637625,-25.999999 -26.995057,-25.175954 -26.735811,-26.92131 -27.833996,-28.157378 -26.316341,-28.412023 -25.637625,-30" transform="matrix(.5 0 0 0.5 141.962383 260.521886)" fill="#c0c1c3" stroke-width="0"/><polygon points="-25.637625,-30 -24.958909,-28.412023 -23.441254,-28.157378 -24.539439,-26.92131 -24.280193,-25.175954 -25.637625,-25.999999 -26.995057,-25.175954 -26.735811,-26.92131 -27.833996,-28.157378 -26.316341,-28.412023 -25.637625,-30" transform="matrix(.5 0 0 0.5 54.302676 260.521886)" fill="#c0c1c3" stroke-width="0"/><polygon points="-8.764075,-12.258099 -8.085359,-10.670122 -6.567704,-10.415477 -7.665889,-9.179409 -7.406643,-7.434053 -8.764075,-8.258098 -10.121507,-7.434053 -9.862261,-9.179409 -10.960446,-10.415477 -9.442791,-10.670122 -8.764075,-12.258099" transform="matrix(.5 0 0 0.5 128.525607 186.256641)" fill="#c0c1c3" stroke-width="0"/><polygon points="-25.637625,-30 -24.958909,-28.412023 -23.441254,-28.157378 -24.539439,-26.92131 -24.280193,-25.175954 -25.637625,-25.999999 -26.995057,-25.175954 -26.735811,-26.92131 -27.833996,-28.157378 -26.316341,-28.412023 -25.637625,-30" transform="matrix(.5 0 0 0.5 228.776361 54.333887)" fill="#c0c1c3" stroke-width="0"/><polygon points="-25.637625,-30 -24.958909,-28.412023 -23.441254,-28.157378 -24.539439,-26.92131 -24.280193,-25.175954 -25.637625,-25.999999 -26.995057,-25.175954 -26.735811,-26.92131 -27.833996,-28.157378 -26.316341,-28.412023 -25.637625,-30" transform="matrix(.5 0 0 0.5 233.776361 200.127592)" fill="#c0c1c3" stroke-width="0"/><polygon points="-25.637625,-30 -24.958909,-28.412023 -23.441254,-28.157378 -24.539439,-26.92131 -24.280193,-25.175954 -25.637625,-25.999999 -26.995057,-25.175954 -26.735811,-26.92131 -27.833996,-28.157378 -26.316341,-28.412023 -25.637625,-30" transform="matrix(.5 0 0 0.5 40.505936 177.454368)" fill="#c0c1c3" stroke-width="0"/><polygon points="-25.637625,-30 -25.148949,-28.10999 -23.441254,-28.157379 -24.846931,-27.036677 -24.280193,-25.175954 -25.637625,-26.373333 -26.995057,-25.175954 -26.428319,-27.036677 -27.833996,-28.157379 -26.126301,-28.10999 -25.637625,-30" transform="matrix(.5 0 0 0.5 253.418832 129.24779)" fill="#c0c1c3" stroke-width="0"/><polygon points="-25.637625,-30 -25.148949,-28.10999 -23.441254,-28.157379 -24.846931,-27.036677 -24.280193,-25.175954 -25.637625,-26.373333 -26.995057,-25.175954 -26.428319,-27.036677 -27.833996,-28.157379 -26.126301,-28.10999 -25.637625,-30" transform="matrix(.5 0 0 0.5 209.00208 38.363509)" fill="#c0c1c3" stroke-width="0"/><polygon points="-25.637625,-30 -25.148949,-28.10999 -23.441254,-28.157379 -24.846931,-27.036677 -24.280193,-25.175954 -25.637625,-26.373333 -26.995057,-25.175954 -26.428319,-27.036677 -27.833996,-28.157379 -26.126301,-28.10999 -25.637625,-30" transform="matrix(.5 0 0 0.5 151.962383 79.333888)" fill="#c0c1c3" stroke-width="0"/><polygon points="-25.637625,-30 -25.148949,-28.10999 -23.441254,-28.157379 -24.846931,-27.036677 -24.280193,-25.175954 -25.637625,-26.373333 -26.995057,-25.175954 -26.428319,-27.036677 -27.833996,-28.157379 -26.126301,-28.10999 -25.637625,-30" transform="matrix(.5 0 0 0.5 214.002081 119.24779)" fill="#c0c1c3" stroke-width="0"/><polygon points="-25.637625,-30 -25.148949,-28.10999 -23.441254,-28.157379 -24.846931,-27.036677 -24.280193,-25.175954 -25.637625,-26.373333 -26.995057,-25.175954 -26.428319,-27.036677 -27.833996,-28.157379 -26.126301,-28.10999 -25.637625,-30" transform="matrix(.5 0 0 0.5 258.418832 155.000001)" fill="#c0c1c3" stroke-width="0"/><polygon points="-25.637625,-30 -25.148949,-28.10999 -23.441254,-28.157379 -24.846931,-27.036677 -24.280193,-25.175954 -25.637625,-26.373333 -26.995057,-25.175954 -26.428319,-27.036677 -27.833996,-28.157379 -26.126301,-28.10999 -25.637625,-30" transform="matrix(.5 0 0 0.5 156.962383 129.24779)" fill="#c0c1c3" stroke-width="0"/><polygon points="-25.637625,-30 -25.148949,-28.10999 -23.441254,-28.157379 -24.846931,-27.036677 -24.280193,-25.175954 -25.637625,-26.373333 -26.995057,-25.175954 -26.428319,-27.036677 -27.833996,-28.157379 -26.126301,-28.10999 -25.637625,-30" transform="matrix(.5 0 0 0.5 196.312905 155.000001)" fill="#c0c1c3" stroke-width="0"/><polygon points="-25.637625,-30 -25.148949,-28.10999 -23.441254,-28.157379 -24.846931,-27.036677 -24.280193,-25.175954 -25.637625,-26.373333 -26.995057,-25.175954 -26.428319,-27.036677 -27.833996,-28.157379 -26.126301,-28.10999 -25.637625,-30" transform="matrix(.5 0 0 0.5 214.002081 79.333888)" fill="#c0c1c3" stroke-width="0"/><polygon points="-8.764075,-12.258099 -8.085359,-10.670122 -6.567704,-10.415477 -7.665889,-9.179409 -7.406643,-7.434053 -8.764075,-8.258098 -10.121507,-7.434053 -9.862261,-9.179409 -10.960446,-10.415477 -9.442791,-10.670122 -8.764075,-12.258099" transform="matrix(.5 0 0 0.5 235.339586 105.37684)" fill="#c0c1c3" stroke-width="0"/><polygon points="-25.637625,-30 -24.958909,-28.412023 -23.441254,-28.157378 -24.539439,-26.92131 -24.280193,-25.175954 -25.637625,-25.999999 -26.995057,-25.175954 -26.735811,-26.92131 -27.833996,-28.157378 -26.316341,-28.412023 -25.637625,-30" transform="matrix(.5 0 0 0.5 186.312906 215.127592)" fill="#c0c1c3" stroke-width="0"/><polygon points="-8.764075,-12.258099 -8.085359,-10.670122 -6.567704,-10.415477 -7.665889,-9.179409 -7.406643,-7.434053 -8.764075,-8.258098 -10.121507,-7.434053 -9.862261,-9.179409 -10.960446,-10.415477 -9.442791,-10.670122 -8.764075,-12.258099" transform="matrix(.5 0 0 0.5 272.285519 110.37684)" fill="#c0c1c3" stroke-width="0"/><polygon points="-25.637625,-30 -24.958909,-28.412023 -23.441254,-28.157378 -24.539439,-26.92131 -24.280193,-25.175954 -25.637625,-25.999999 -26.995057,-25.175954 -26.735811,-26.92131 -27.833996,-28.157378 -26.316341,-28.412023 -25.637625,-30" transform="matrix(.5 0 0 0.5 214.002081 239.728868)" fill="#c0c1c3" stroke-width="0"/><polygon points="-25.637625,-30 -25.148949,-28.10999 -23.441254,-28.157379 -24.846931,-27.036677 -24.280193,-25.175954 -25.637625,-26.373333 -26.995057,-25.175954 -26.428319,-27.036677 -27.833996,-28.157379 -26.126301,-28.10999 -25.637625,-30" transform="matrix(.5 0 0 0.5 175.759124 59.333887)" fill="#c0c1c3" stroke-width="0"/><polygon points="-8.764075,-12.258099 -8.085359,-10.670122 -6.567704,-10.415477 -7.665889,-9.179409 -7.406643,-7.434053 -8.764075,-8.258098 -10.121507,-7.434053 -9.862261,-9.179409 -10.960446,-10.415477 -9.442791,-10.670122 -8.764075,-12.258099" transform="matrix(.5 0 0 0.5 249.982055 45.462936)" fill="#c0c1c3" stroke-width="0"/><polygon points="-25.637625,-30 -24.958909,-28.412023 -23.441254,-28.157378 -24.539439,-26.92131 -24.280193,-25.175954 -25.637625,-25.999999 -26.995057,-25.175954 -26.735811,-26.92131 -27.833996,-28.157378 -26.316341,-28.412023 -25.637625,-30" transform="matrix(.5 0 0 0.5 258.418832 265.521887)" fill="#c0c1c3" stroke-width="0"/><polygon points="-25.637625,-30 -24.958909,-28.412023 -23.441254,-28.157378 -24.539439,-26.92131 -24.280193,-25.175954 -25.637625,-25.999999 -26.995057,-25.175954 -26.735811,-26.92131 -27.833996,-28.157378 -26.316341,-28.412023 -25.637625,-30" transform="matrix(.5 0 0 0.5 170.759123 265.521887)" fill="#c0c1c3" stroke-width="0"/><polygon points="-8.764075,-12.258099 -8.085359,-10.670122 -6.567704,-10.415477 -7.665889,-9.179409 -7.406643,-7.434053 -8.764075,-8.258098 -10.121507,-7.434053 -9.862261,-9.179409 -10.960446,-10.415477 -9.442791,-10.670122 -8.764075,-12.258099" transform="matrix(.5 0 0 0.5 244.982055 191.256642)" fill="#c0c1c3" stroke-width="0"/><polygon points="-25.637625,-30 -24.958909,-28.412023 -23.441254,-28.157378 -24.539439,-26.92131 -24.280193,-25.175954 -25.637625,-25.999999 -26.995057,-25.175954 -26.735811,-26.92131 -27.833996,-28.157378 -26.316341,-28.412023 -25.637625,-30" transform="matrix(.5 0 0 0.5 156.962383 182.454368)" fill="#c0c1c3" stroke-width="0"/></svg>
